<svg id="图层_1" data-name="图层 1"
    xmlns="http://www.w3.org/2000/svg" viewBox="0 0 100 48">
    <defs>
        <style>.cls-1{fill-opacity: 0;}.cls-2{fill:#35d48f;}</style>
    </defs>
    <title>100x48</title>
    <rect class="cls-1" width="100" height="48"/>
    <path class="cls-2" d="M28.07,13.43a2.47,2.47,0,0,0-.7,1.73,1,1,0,1,1,0,1.57,2.49,2.49,0,0,0,.8,1.73c1.09.66,4.38-2,4.36-2.63S29.11,12.71,28.07,13.43Z"/>
    <path class="cls-2" d="M98.6,12.64H88.12a.65.65,0,0,0-.65.65V14a.65.65,0,0,0,.65.65h5.16a.65.65,0,0,1,.65.65V30.75h0v.81a2,2,0,0,1-.76,1.55c-1.09.84-2.81,2.32-1.57,2.35a20,20,0,0,0,5.17-1.36.67.67,0,0,0,.44-.63V15.3a.65.65,0,0,1,.65-.65h.74a.65.65,0,0,0,.65-.65v-.7A.65.65,0,0,0,98.6,12.64Z"/>
    <rect class="cls-2" x="57.27" y="18.72" width="2.8" height="10.53" rx="1.4" ry="1.4"/>
    <path class="cls-2" d="M92.14,16.52H88.66a.65.65,0,0,0-.65.65V31.29a.65.65,0,0,0,.82.63L92.3,31a.65.65,0,0,0,.48-.63V17.17A.65.65,0,0,0,92.14,16.52Zm-.45,11.3a1.29,1.29,0,0,1-2.58,0V19.24a1.29,1.29,0,0,1,2.58,0Z"/>
    <path class="cls-2" d="M77.74,14.28H72a.65.65,0,0,0-.65.65V30.45a.65.65,0,0,0,.77.64L77.86,30a.65.65,0,0,0,.53-.64V14.93A.65.65,0,0,0,77.74,14.28ZM77,26.33a1.29,1.29,0,0,1-1.29,1.29h0a1.29,1.29,0,0,1-1.29-1.29V17.18a1.29,1.29,0,0,1,1.29-1.29h0A1.29,1.29,0,0,1,77,17.18Z"/>
    <path class="cls-2" d="M85.89,13H80.07a.65.65,0,0,0-.65.65l-.07,19v4.83a.65.65,0,0,0,.84.62l2.38-.72a.65.65,0,0,0,.46-.62V34.49a.65.65,0,0,1,.42-.61l2.66-1a.65.65,0,0,0,.42-.61V13.63A.65.65,0,0,0,85.89,13ZM85,30A1.08,1.08,0,0,1,83.94,31h0A1.08,1.08,0,0,1,82.86,30V15.62a1.08,1.08,0,0,1,1.08-1.08h0A1.08,1.08,0,0,1,85,15.62Z"/>
    <path class="cls-2" d="M67,15H66a.65.65,0,0,1-.65-.65V12.57a.65.65,0,0,0-.65-.65H62.6a.65.65,0,0,0-.65.65v1.74a.65.65,0,0,1-.65.65H55.24a.65.65,0,0,0-.65.65v.94a.65.65,0,0,0,.65.65H61.3a.65.65,0,0,1,.65.65V30h0v.65a2,2,0,0,1-.78,1.59c-1.12.87-2.89,2.38-1.61,2.41a20.53,20.53,0,0,0,5.3-1.4.69.69,0,0,0,.45-.65v-2h0V17.86a.65.65,0,0,1,.65-.65h1a.65.65,0,0,0,.65-.65v-.95A.65.65,0,0,0,67,15Z"/>
    <path class="cls-2" d="M53.67,16.34c-.19,4.89-1.27,8.59-3.33,11.32a.23.23,0,0,0,0,.27,23.69,23.69,0,0,0,2.2,2.87c3.77,4.23,1.17,2.69-.34,1.65a20.1,20.1,0,0,1-3.35-2.85.17.17,0,0,0-.24,0,23.87,23.87,0,0,1-3,2.36c-.94.65-4.08,2.28-.33-1.59a19.57,19.57,0,0,0,2-2.42.24.24,0,0,0,0-.27c-1.69-2.52-2.44-4.84-3-9-.05-.41.27-.39.27-.39h2.31s.31,0,.35.36A16.13,16.13,0,0,0,48.75,25,.15.15,0,0,0,49,25a18.86,18.86,0,0,0,1.79-7.35h0A.72.72,0,0,0,50,17H44.85a.72.72,0,0,1-.77-.65v-.94a.72.72,0,0,1,.77-.65H52.9a.72.72,0,0,1,.77.65v.9"/>
    <path class="cls-2" d="M6.83,13.43a2.47,2.47,0,0,0-.7,1.73,1,1,0,1,1,0,1.57A2.49,2.49,0,0,0,7,18.47c1.09.66,4.38-2,4.36-2.63S7.88,12.71,6.83,13.43Z"/>
    <path class="cls-2" d="M34.39,18.78A5.44,5.44,0,0,0,25.21,13a20.4,20.4,0,0,0-6.07-1,20.4,20.4,0,0,0-6.06,1,5.44,5.44,0,0,0-9.19,5.82A11.77,11.77,0,0,0,.72,26.42c0,3.63,2.06,6.66,5.95,8.77A26.72,26.72,0,0,0,19.13,38,26.72,26.72,0,0,0,31.6,35.18c3.89-2.11,5.95-5.14,5.95-8.77A11.77,11.77,0,0,0,34.39,18.78ZM29.76,12a4,4,0,1,1-4,4A4,4,0,0,1,29.76,12ZM8.52,12a4,4,0,1,1-4,4A4,4,0,0,1,8.52,12ZM30.9,33.88a25.59,25.59,0,0,1-11.76,2.61A25.59,25.59,0,0,1,7.37,33.88a13.54,13.54,0,0,1-1.8-1.16,18.4,18.4,0,0,1,2.68-1.18,32.56,32.56,0,0,1,10.88-1.68c7.4,0,11.85,1.93,13.56,2.87A13.55,13.55,0,0,1,30.9,33.88Zm3-2.2c-1.52-.92-6.27-3.31-14.73-3.31S5.92,30.77,4.4,31.69a8.4,8.4,0,0,1-1.16-1.51c4.09-.75,4.53-3.16,1.95-2.63a10.66,10.66,0,0,1-2.88.15,7.39,7.39,0,0,1-.11-1.27,8,8,0,0,1,.07-1c5.21,2.06,7.34-.39,4.46-1.05a11.94,11.94,0,0,1-3.66-1.66,12.32,12.32,0,0,1,1.77-2.74,5.44,5.44,0,0,0,8.88-5.63,18.29,18.29,0,0,1,10.85,0,5.44,5.44,0,0,0,8.87,5.63,12.32,12.32,0,0,1,1.77,2.74,11.94,11.94,0,0,1-3.66,1.66c-2.88.67-.75,3.11,4.46,1.05a8,8,0,0,1,.07,1A7.39,7.39,0,0,1,36,27.69a10.66,10.66,0,0,1-2.88-.15C30.5,27,30.94,29.43,35,30.18A8.4,8.4,0,0,1,33.87,31.69Z"/>
    <path class="cls-2" d="M23.12,20.41a.27.27,0,0,0-.36-.1l-3.63,1.93a.76.76,0,0,1-.53.07l-1.68-.39a.33.33,0,0,0-.25.61l1.93,1.41a.6.6,0,0,0,.3.08.63.63,0,0,0,.37-.12l3.78-3.12A.27.27,0,0,0,23.12,20.41Z"/>
</svg>